<svg width="32" height="32" viewBox="0 0 32 32" fill="none" xmlns="http://www.w3.org/2000/svg">
<path fill-rule="evenodd" clip-rule="evenodd" d="M15.2202 16.777C14.1371 15.6928 13.2421 14.5214 12.7671 13.5724C12.6112 13.2607 12.5142 12.9993 12.4716 12.8125L13.4322 11.8512C13.643 11.6403 13.7443 11.5376 13.8752 11.4C14.1526 11.1085 14.3839 10.842 14.5874 10.5679C15.5027 9.33439 15.8429 7.9916 14.7593 6.78247C12.7078 3.91276 11.3277 2.13784 10.4429 1.2638C8.61713 -0.539639 5.64264 -0.29804 4.05929 1.26202C3.29476 2.01531 3.03487 2.27505 2.24983 3.07239C-2.33486 7.65933 0.399463 17.1421 7.62412 24.3736C14.8475 31.6038 24.3311 34.3398 28.9279 29.7406C29.6495 29.0451 30.2662 28.4281 30.7541 27.9124C32.2988 26.2798 32.532 23.4335 30.7423 21.574C29.8913 20.6898 28.1989 19.3765 25.2055 17.235C24.1106 16.2642 22.83 16.4748 21.6922 17.2212C21.1797 17.5574 20.8191 17.8863 20.1401 18.5659L19.1804 19.526C18.9938 19.4834 18.7328 19.3865 18.4216 19.2307C17.473 18.7557 16.3025 17.8603 15.2202 16.777ZM21.7758 22.5849L22.9678 21.3923C23.1714 21.1885 23.3324 21.0313 23.4656 20.9079C25.8791 22.6477 27.2915 23.7542 27.8619 24.3469C28.0558 24.5484 28.02 24.9845 27.8501 25.1641C27.4089 25.6304 26.8336 26.206 26.1264 26.8881C23.5169 29.4984 16.3219 27.4226 10.4521 21.5473C4.58 15.6697 2.50478 8.47274 5.08776 5.88845C5.86874 5.09531 6.11436 4.84982 6.86489 4.11033C6.98406 3.99292 7.47583 3.95298 7.63333 4.10855C8.2494 4.71711 9.40295 6.18736 11.0891 8.52579C11.0545 8.56348 11.0178 8.6027 10.9789 8.64349C10.8776 8.75005 10.7921 8.83666 10.604 9.02498C10.2258 9.4034 10.0608 9.56861 9.89567 9.73378C9.76774 9.86176 9.6398 9.98972 9.41271 10.2168C7.1191 12.5102 8.93921 16.1471 12.392 19.6031C15.8427 23.0571 19.4822 24.8797 21.7758 22.5849Z" fill="white"/>
</svg>
