<svg width="32" height="32" viewBox="0 0 32 32" fill="none" xmlns="http://www.w3.org/2000/svg">
<path fill-rule="evenodd" clip-rule="evenodd" d="M13.9385 30.1618L16 31.999L18.0615 30.1618C24.6442 24.2954 28 19.0842 28 14.2062C28 7.28087 22.6853 2 16 2C9.31473 2 4 7.28087 4 14.2062C4 19.0842 7.35579 24.2954 13.9385 30.1618ZM16 6C20.4818 6 24 9.49575 24 14.2062C24 17.5455 21.404 21.6938 16 26.6342C10.596 21.6938 8 17.5455 8 14.2062C8 9.49575 11.5182 6 16 6ZM16 8C19.3137 8 22 10.6863 22 14C22 17.3137 19.3137 20 16 20C12.6863 20 10 17.3137 10 14C10 10.6863 12.6863 8 16 8ZM14 14C14 12.8954 14.8954 12 16 12C17.1046 12 18 12.8954 18 14C18 15.1046 17.1046 16 16 16C14.8954 16 14 15.1046 14 14Z" fill="white"/>
</svg>
