<svg width="48" height="48" viewBox="0 0 48 48" fill="none" xmlns="http://www.w3.org/2000/svg">
<path d="M48 24C48 37.2548 37.2548 48 24 48C10.7452 48 0 37.2548 0 24C0 10.7452 10.7452 0 24 0C37.2548 0 48 10.7452 48 24Z" fill="white"/>
<path d="M36.6049 12.0622C36.1399 11.6679 35.4096 11.6115 34.6544 11.9147H34.6532C33.859 12.2334 12.1714 21.5358 11.2885 21.9159C11.1279 21.9717 9.72546 22.495 9.86992 23.6606C9.99888 24.7115 11.126 25.1467 11.2637 25.1969L16.7773 27.0848C17.1431 28.3025 18.4916 32.795 18.7899 33.7548C18.9759 34.3531 19.279 35.1393 19.8104 35.3011C20.2766 35.4809 20.7404 35.3166 21.0405 35.081L24.4114 31.9543L29.8531 36.1982L29.9827 36.2757C30.3522 36.4394 30.7063 36.5212 31.0442 36.5212C31.3052 36.5212 31.5557 36.4723 31.795 36.3743C32.6103 36.0395 32.9364 35.2626 32.9705 35.1746L37.0352 14.0469C37.2832 12.9185 36.9385 12.3443 36.6049 12.0622ZM21.64 27.84L19.78 32.8L17.92 26.6L32.18 16.06L21.64 27.84Z" fill="#311C4A"/>
</svg>
